<?xml version="1.0" standalone="no"?>
<!DOCTYPE svg PUBLIC "-//W3C//DTD SVG 20010904//EN"
 "http://www.w3.org/TR/2001/REC-SVG-20010904/DTD/svg10.dtd">
<svg version="1.0" xmlns="http://www.w3.org/2000/svg"
 width="96.000000pt" height="96.000000pt" viewBox="0 0 96.000000 96.000000"
 preserveAspectRatio="xMidYMid meet">
<metadata>
Created by potrace 1.15, written by Peter Selinger 2001-2017
</metadata>
<g transform="translate(0.000000,96.000000) scale(0.100000,-0.100000)"
fill="#000000" stroke="none">
<path d="M213 747 l-213 -213 0 -54 0 -54 213 -213 213 -213 54 0 54 0 199
198 c109 108 205 209 213 224 18 36 18 82 -2 120 l-16 31 -201 -201 c-111
-111 -215 -206 -230 -211 -42 -16 -66 1 -219 157 -170 172 -170 173 -75 269
85 84 97 84 191 -7 40 -39 77 -70 82 -70 5 0 65 56 134 125 l125 126 -101 99
-101 100 -54 0 -53 0 -213 -213z"/>
<path d="M655 620 l-180 -180 -80 80 c-47 47 -89 80 -101 80 -22 0 -114 -88
-114 -110 0 -22 271 -290 294 -290 27 0 486 468 486 495 0 26 -79 105 -105
105 -13 0 -88 -68 -200 -180z"/>
</g>
</svg>
