<?xml version="1.0" standalone="no"?>
<!DOCTYPE svg PUBLIC "-//W3C//DTD SVG 20010904//EN"
 "http://www.w3.org/TR/2001/REC-SVG-20010904/DTD/svg10.dtd">
<svg version="1.0" xmlns="http://www.w3.org/2000/svg"
 width="112.000000pt" height="96.000000pt" viewBox="0 0 112.000000 96.000000"
 preserveAspectRatio="xMidYMid meet">
<metadata>
Created by potrace 1.15, written by Peter Selinger 2001-2017
</metadata>
<g transform="translate(0.000000,96.000000) scale(0.100000,-0.100000)"
fill="#000000" stroke="none">
<path d="M175 948 c-120 -43 -175 -131 -175 -278 0 -69 4 -85 36 -148 31 -63
61 -97 266 -297 182 -176 238 -225 258 -225 20 0 76 49 258 225 205 200 235
234 266 297 32 63 36 79 36 148 0 185 -89 280 -268 288 -100 5 -144 -9 -232
-74 l-60 -44 -53 39 c-85 64 -130 81 -222 80 -44 0 -93 -5 -110 -11z"/>
</g>
</svg>
