<?xml version="1.0" standalone="no"?>
<!DOCTYPE svg PUBLIC "-//W3C//DTD SVG 20010904//EN"
 "http://www.w3.org/TR/2001/REC-SVG-20010904/DTD/svg10.dtd">
<svg version="1.0" xmlns="http://www.w3.org/2000/svg"
 width="72.000000pt" height="88.000000pt" viewBox="0 0 72.000000 88.000000"
 preserveAspectRatio="xMidYMid meet">
<metadata>
Created by potrace 1.15, written by Peter Selinger 2001-2017
</metadata>
<g transform="translate(0.000000,88.000000) scale(0.100000,-0.100000)"
fill="#000000" stroke="none">
<path d="M26 854 l-26 -27 0 -387 0 -387 26 -27 27 -26 307 0 307 0 27 26 26
27 0 387 0 387 -26 27 -27 26 -307 0 -307 0 -27 -26z m602 -66 c17 -17 17
-599 0 -616 -17 -17 -519 -17 -536 0 -17 17 -17 599 0 616 17 17 519 17 536 0z"/>
</g>
</svg>
