<?xml version="1.0" encoding="iso-8859-1"?><!DOCTYPE svg PUBLIC "-//W3C//DTD SVG 1.1//EN" "http://www.w3.org/Graphics/SVG/1.1/DTD/svg11.dtd"><svg viewBox="0 0 576 512" xmlns="http://www.w3.org/2000/svg" xmlns:xlink="http://www.w3.org/1999/xlink"><style>:root>svg{display:none}:root>svg:target{display:block}</style><svg viewBox="0 0 32.75 32.75" id="calendar" xmlns="http://www.w3.org/2000/svg"><path d="M29.375 1.25h-1.123c.029-.093.059-.186.059-.289a.963.963 0 00-1.924 0c0 .103.028.196.059.289h-3.68c.029-.093.059-.186.059-.289a.962.962 0 00-1.925 0 .93.93 0 00.059.289h-3.682c.029-.093.059-.186.059-.289a.961.961 0 00-1.922 0c0 .103.028.196.058.289h-3.681c.029-.093.059-.186.059-.289a.962.962 0 00-1.923 0c0 .103.028.196.058.289h-3.68a.93.93 0 00.059-.289.96.96 0 10-1.923 0c0 .103.028.196.058.289H3.375A2.752 2.752 0 00.625 4v26a2.751 2.751 0 002.75 2.75H26.27l5.855-5.855V4a2.752 2.752 0 00-2.75-2.75zm-26 30c-.689 0-1.25-.561-1.25-1.25V9h28.5v17.273l-.311.311h-2.355c-1.102 0-2 .9-2 2v2.355l-.311.311H3.375z"/><path d="M16.091 17.725c0-2.953-2.467-4.104-5.096-4.104-3.295 0-5.329 1.513-5.384 5.239h3.367c-.018-1.225.396-2.43 1.836-2.43.757 0 1.531.468 1.531 1.278 0 2.105-3.331 2.971-5.455 5.186-1.01 1.045-1.586 2.125-1.514 3.602h10.679v-3.061h-5.888c.666-.469 1.638-.955 2.557-1.531 1.657-1.028 3.367-1.946 3.367-4.179zM27.771 22.102c0-2.539-1.891-4.017-4.32-4.017-.955 0-1.836.108-2.629.685l.414-1.909h5.51V13.8h-8.139l-1.26 7.22 3.528.127c.287-.559.953-.703 1.513-.703 1.135 0 1.639.793 1.639 1.837 0 .937-.721 1.675-1.818 1.675-.686 0-1.404-.36-1.621-1.025 0-.037-.035-.091-.035-.127l-3.764.379c.721 2.34 2.521 3.582 5.293 3.582 2.898-.001 5.689-1.154 5.689-4.663z"/></svg><svg viewBox="0 0 512 512" id="columns" xmlns="http://www.w3.org/2000/svg"><path d="M464 32H48C21.49 32 0 53.49 0 80v352c0 26.51 21.49 48 48 48h416c26.51 0 48-21.49 48-48V80c0-26.51-21.49-48-48-48zM224 416H64V160h160v256zm224 0H288V160h160v256z"/></svg><svg viewBox="0 0 512 512" id="envelope" xmlns="http://www.w3.org/2000/svg"><path d="M502.3 190.8c3.9-3.1 9.7-.2 9.7 4.7V400c0 26.5-21.5 48-48 48H48c-26.5 0-48-21.5-48-48V195.6c0-5 5.7-7.8 9.7-4.7 22.4 17.4 52.1 39.5 154.1 113.6 21.1 15.4 56.7 47.8 92.2 47.6 35.7.3 72-32.8 92.3-47.6 102-74.1 131.6-96.3 154-113.7zM256 320c23.2.4 56.6-29.2 73.4-41.4 132.7-96.3 142.8-104.7 173.4-128.7 5.8-4.5 9.2-11.5 9.2-18.9v-19c0-26.5-21.5-48-48-48H48C21.5 64 0 85.5 0 112v19c0 7.4 3.4 14.3 9.2 18.9 30.6 23.9 40.7 32.4 173.4 128.7 16.8 12.2 50.2 41.8 73.4 41.4z"/></svg><svg viewBox="0 0 512 512" id="key" xmlns="http://www.w3.org/2000/svg"><path d="M512 176.001C512 273.203 433.202 352 336 352c-11.22 0-22.19-1.062-32.827-3.069l-24.012 27.014A23.999 23.999 0 01261.223 384H224v40c0 13.255-10.745 24-24 24h-40v40c0 13.255-10.745 24-24 24H24c-13.255 0-24-10.745-24-24v-78.059c0-6.365 2.529-12.47 7.029-16.971l161.802-161.802C163.108 213.814 160 195.271 160 176 160 78.798 238.797.001 335.999 0 433.488-.001 512 78.511 512 176.001zM336 128c0 26.51 21.49 48 48 48s48-21.49 48-48-21.49-48-48-48-48 21.49-48 48z"/></svg><svg viewBox="0 0 137.271 137.271" id="leftarrow" xmlns="http://www.w3.org/2000/svg"><path d="M123.253 40.596h-56.07V12.565c0-7.741-4.44-9.581-9.909-4.107L2.052 63.68a7.01 7.01 0 000 9.911l55.222 55.22c5.472 5.476 9.909 3.635 9.909-4.106V96.67h56.07c7.741 0 14.018-6.276 14.018-14.018V54.613c0-7.741-6.277-14.017-14.018-14.017zm0 42.056H53.166v22.228L16.918 68.636 53.166 32.39v22.232h70.087v28.03z"/></svg><svg viewBox="0 0 512 512" id="list" xmlns="http://www.w3.org/2000/svg"><path d="M80 368H16a16 16 0 00-16 16v64a16 16 0 0016 16h64a16 16 0 0016-16v-64a16 16 0 00-16-16zm0-320H16A16 16 0 000 64v64a16 16 0 0016 16h64a16 16 0 0016-16V64a16 16 0 00-16-16zm0 160H16a16 16 0 00-16 16v64a16 16 0 0016 16h64a16 16 0 0016-16v-64a16 16 0 00-16-16zm416 176H176a16 16 0 00-16 16v32a16 16 0 0016 16h320a16 16 0 0016-16v-32a16 16 0 00-16-16zm0-320H176a16 16 0 00-16 16v32a16 16 0 0016 16h320a16 16 0 0016-16V80a16 16 0 00-16-16zm0 160H176a16 16 0 00-16 16v32a16 16 0 0016 16h320a16 16 0 0016-16v-32a16 16 0 00-16-16z"/></svg><svg viewBox="0 0 512 512" id="phone" xmlns="http://www.w3.org/2000/svg"><path d="M497.39 361.8l-112-48a24 24 0 00-28 6.9l-49.6 60.6A370.66 370.66 0 01130.6 204.11l60.6-49.6a23.94 23.94 0 006.9-28l-48-112A24.16 24.16 0 00122.6.61l-104 24A24 24 0 000 48c0 256.5 207.9 464 464 464a24 24 0 0023.4-18.6l24-104a24.29 24.29 0 00-14.01-27.6z"/></svg><svg viewBox="0 0 306.287 306.288" id="rightarrow" xmlns="http://www.w3.org/2000/svg"><path d="M301.703 142.088L178.486 18.803c-12.202-12.217-22.108-8.119-22.108 9.161v62.592H31.274C14.006 90.556 0 104.56 0 121.848v62.582c0 17.288 14.006 31.294 31.274 31.294h125.104v62.592c0 17.284 9.906 21.388 22.108 9.169l123.217-123.276c6.111-6.107 6.111-16.016 0-22.121zm-114.048 91.97V184.43H31.274v-62.582h156.381V72.226l80.874 80.92-80.874 80.912z"/></svg><svg viewBox="0 0 576 512" id="shopping-basket" xmlns="http://www.w3.org/2000/svg"><path d="M576 216v16c0 13.255-10.745 24-24 24h-8l-26.113 182.788C514.509 462.435 494.257 480 470.37 480H105.63c-23.887 0-44.139-17.565-47.518-41.212L32 256h-8c-13.255 0-24-10.745-24-24v-16c0-13.255 10.745-24 24-24h67.341l106.78-146.821c10.395-14.292 30.407-17.453 44.701-7.058 14.293 10.395 17.453 30.408 7.058 44.701L170.477 192h235.046L326.12 82.821c-10.395-14.292-7.234-34.306 7.059-44.701 14.291-10.395 34.306-7.235 44.701 7.058L484.659 192H552c13.255 0 24 10.745 24 24zM312 392V280c0-13.255-10.745-24-24-24s-24 10.745-24 24v112c0 13.255 10.745 24 24 24s24-10.745 24-24zm112 0V280c0-13.255-10.745-24-24-24s-24 10.745-24 24v112c0 13.255 10.745 24 24 24s24-10.745 24-24zm-224 0V280c0-13.255-10.745-24-24-24s-24 10.745-24 24v112c0 13.255 10.745 24 24 24s24-10.745 24-24z"/></svg><svg viewBox="0 0 352 512" id="times" xmlns="http://www.w3.org/2000/svg"><path d="M242.72 256l100.07-100.07c12.28-12.28 12.28-32.19 0-44.48l-22.24-22.24c-12.28-12.28-32.19-12.28-44.48 0L176 189.28 75.93 89.21c-12.28-12.28-32.19-12.28-44.48 0L9.21 111.45c-12.28 12.28-12.28 32.19 0 44.48L109.28 256 9.21 356.07c-12.28 12.28-12.28 32.19 0 44.48l22.24 22.24c12.28 12.28 32.2 12.28 44.48 0L176 322.72l100.07 100.07c12.28 12.28 32.2 12.28 44.48 0l22.24-22.24c12.28-12.28 12.28-32.19 0-44.48L242.72 256z"/></svg><svg viewBox="0 0 448 512" id="trash-alt" xmlns="http://www.w3.org/2000/svg"><path d="M32 464a48 48 0 0048 48h288a48 48 0 0048-48V128H32zm272-256a16 16 0 0132 0v224a16 16 0 01-32 0zm-96 0a16 16 0 0132 0v224a16 16 0 01-32 0zm-96 0a16 16 0 0132 0v224a16 16 0 01-32 0zM432 32H312l-9.4-18.7A24 24 0 00281.1 0H166.8a23.72 23.72 0 00-21.4 13.3L136 32H16A16 16 0 000 48v32a16 16 0 0016 16h416a16 16 0 0016-16V48a16 16 0 00-16-16z"/></svg><svg viewBox="0 0 448 512" id="user" xmlns="http://www.w3.org/2000/svg"><path d="M224 256c70.7 0 128-57.3 128-128S294.7 0 224 0 96 57.3 96 128s57.3 128 128 128zm89.6 32h-16.7c-22.2 10.2-46.9 16-72.9 16s-50.6-5.8-72.9-16h-16.7C60.2 288 0 348.2 0 422.4V464c0 26.5 21.5 48 48 48h352c26.5 0 48-21.5 48-48v-41.6c0-74.2-60.2-134.4-134.4-134.4z"/></svg></svg>