<?xml version="1.0" encoding="iso-8859-1"?><!DOCTYPE svg PUBLIC "-//W3C//DTD SVG 1.1//EN" "http://www.w3.org/Graphics/SVG/1.1/DTD/svg11.dtd"><svg viewBox="0 0 512 512" xmlns="http://www.w3.org/2000/svg" xmlns:xlink="http://www.w3.org/1999/xlink"><style>:root>svg{display:none}:root>svg:target{display:block}</style><svg viewBox="0 0 512 512" id="auricular-phone-symbol-in-a-circle_icon-icons.com_56570" xmlns="http://www.w3.org/2000/svg"><path d="M256 32c123.5 0 224 100.5 224 224S379.5 480 256 480 32 379.5 32 256 132.5 32 256 32m0-32C114.625 0 0 114.625 0 256s114.625 256 256 256 256-114.625 256-256S397.375 0 256 0zm142.719 341.594l-1.438-4.375c-3.375-10.062-14.5-20.562-24.75-23.375L334.688 303.5c-10.25-2.781-24.875.969-32.405 8.5l-13.688 13.688c-49.75-13.469-88.781-52.5-102.219-102.25l13.688-13.688c7.5-7.5 11.25-22.125 8.469-32.406L198.219 139.5c-2.781-10.25-13.344-21.375-23.406-24.75l-4.313-1.438c-10.094-3.375-24.5.031-32 7.563l-20.5 20.5c-3.656 3.625-6 14.031-6 14.063-.688 65.063 24.813 127.719 70.813 173.75 45.875 45.875 108.313 71.345 173.156 70.781.344 0 11.063-2.281 14.719-5.938l20.5-20.5c7.5-7.469 10.874-21.875 7.531-31.937z"/></svg><svg viewBox="0 0 510 510" id="black-plane_icon-icons.com_72856" xmlns="http://www.w3.org/2000/svg"><path d="M510 255c0-20.4-17.85-38.25-38.25-38.25H331.5L204 12.75h-51l63.75 204H76.5l-38.25-51H0L25.5 255 0 344.25h38.25l38.25-51h140.25l-63.75 204h51l127.5-204h140.25c20.4 0 38.25-17.85 38.25-38.25z"/></svg><svg viewBox="0 0 510 510" id="clock-with-white-face_icon-icons.com_72804" xmlns="http://www.w3.org/2000/svg"><g fill-opacity=".9"><path d="M255 0C114.75 0 0 114.75 0 255s114.75 255 255 255 255-114.75 255-255S395.25 0 255 0zm0 459c-112.2 0-204-91.8-204-204S142.8 51 255 51s204 91.8 204 204-91.8 204-204 204z"/><path d="M267.75 127.5H229.5v153l132.6 81.6 20.4-33.15-114.75-68.85z"/></g></svg><svg viewBox="0 0 231 231" id="list" xmlns="http://www.w3.org/2000/svg"><path d="M50 164.5h181v33H50zM50 99.5h181v33H50zM50 32.5h181v33H50zM0 165.5h33v33H0zM0 99.5h33v33H0zM0 32.5h33v33H0z"/></svg><svg viewBox="0 0 451 451" id="magnifying-glass" xmlns="http://www.w3.org/2000/svg"><path d="M447.05 428l-109.6-109.6c29.4-33.8 47.2-77.9 47.2-126.1C384.65 86.2 298.35 0 192.35 0 86.25 0 .05 86.3.05 192.3s86.3 192.3 192.3 192.3c48.2 0 92.3-17.8 126.1-47.2L428.05 447c2.6 2.6 6.1 4 9.5 4s6.9-1.3 9.5-4c5.2-5.2 5.2-13.8 0-19zM26.95 192.3c0-91.2 74.2-165.3 165.3-165.3 91.2 0 165.3 74.2 165.3 165.3s-74.1 165.4-165.3 165.4c-91.1 0-165.3-74.2-165.3-165.4z"/></svg><svg viewBox="0 0 45.663 45.663" id="shopping-cart" xmlns="http://www.w3.org/2000/svg"><path d="M44.497 13.651a3.19 3.19 0 00-2.103-1.453L9.507 5.789l-.156-.939a3.18 3.18 0 00-1.532-2.225 698.918 698.918 0 01-3.9-2.32 2.144 2.144 0 00-2.941.737l-.017.025A1.886 1.886 0 00.75 2.49c.121.482.43.898.857 1.155 1.213.727 2.83 1.691 3.812 2.271l3.735 22.363a3.172 3.172 0 002.651 2.621v5.078a5.222 5.222 0 00-2.519 4.465 5.226 5.226 0 005.219 5.22 5.226 5.226 0 005.22-5.22 5.19 5.19 0 00-1.214-3.341h13.476a5.195 5.195 0 00-1.213 3.341 5.227 5.227 0 005.221 5.22 5.225 5.225 0 005.219-5.22 5.227 5.227 0 00-4.062-5.088V30.88l1.161-.002a3.196 3.196 0 003.059-2.322l3.479-12.376a3.189 3.189 0 00-.354-2.529zm-8.55 13.181l-4.526.01V14.189l4.526.888v11.755zm-19.766.045V11.228l4.602.889v14.751l-4.602.009zm7.62-14.17l4.602.889v13.252l-4.602.011V12.707zm-10.637-2.073v16.249h-.138L10.211 10.06l2.953.574zm1.341 30.976a1.167 1.167 0 010-2.332 1.167 1.167 0 010 2.332zm21.49 0a1.167 1.167 0 010-2.332 1.167 1.167 0 010 2.332zm-2.915-8.581H15.878V30.93l17.202-.04v2.139zm5.96-11.074v-6.286l1.675.327-1.675 5.959z"/></svg><svg viewBox="0 0 426.667 426.667" id="star_77949" xmlns="http://www.w3.org/2000/svg"><path fill="#fac917" d="M213.333 10.441l65.916 133.576 147.418 21.419L320 269.41l25.173 146.816-131.84-69.316-131.848 69.316 25.182-146.816L0 165.436l147.409-21.419z"/></svg></svg>